<svg xmlns="http://www.w3.org/2000/svg" version="1.1" xmlns:xlink="http://www.w3.org/1999/xlink" xmlns:svgjs="http://svgjs.com/svgjs" width="42" height="41"><svg width="42" height="41" viewBox="0 0 42 41" fill="none" xmlns="http://www.w3.org/2000/svg">
<circle cx="21.0607" cy="20.8835" r="20.095" fill="black"></circle>
<path d="M13.1232 26.7954H13.2181L13.1388 26.7432C12.737 26.4786 12.5226 25.9892 12.5032 25.2643L12.5062 15.9154C12.5063 15.9153 12.5063 15.9151 12.5063 15.915C12.5297 15.189 12.7442 14.6995 13.1419 14.436L13.2207 14.3838H13.1262H10.646H10.5495L10.6306 14.4361C10.8688 14.59 11.0485 14.8176 11.1416 15.0834C11.233 15.4005 11.2749 15.7296 11.266 16.0593L11.266 16.0593V16.0601L11.2659 25.1192L11.266 25.12C11.2752 25.4492 11.2332 25.7778 11.1416 26.0944C11.049 26.3607 10.8692 26.589 10.6306 26.7431L10.5494 26.7954H10.646H13.1232Z" fill="white" stroke="white" stroke-width="0.0569126"></path>
<path d="M15.7398 14.7927C15.6862 14.6646 15.5941 14.556 15.476 14.4815C15.3578 14.4069 15.2193 14.3702 15.0793 14.3762C14.9833 14.3744 14.8879 14.3916 14.7986 14.4266C14.7092 14.4618 14.6277 14.5143 14.5591 14.581C14.4901 14.6439 14.4353 14.7205 14.3981 14.8058C14.3609 14.891 14.3422 14.983 14.3433 15.0759C14.3433 15.0757 14.3433 15.0756 14.3433 15.0754L15.7398 14.7927ZM15.7398 14.7927C15.8634 15.0288 15.8249 15.354 15.6377 15.7641C15.5165 16.0982 15.3005 16.3907 15.0156 16.6064L14.9978 16.62L14.9804 16.6058L14.8915 16.5331L14.8737 16.5184L14.8843 16.4979C14.93 16.4098 14.9561 16.3131 14.9609 16.2142C14.9657 16.116 14.9493 16.0179 14.913 15.9263C14.8793 15.8671 14.8365 15.8133 14.7862 15.7668C14.7377 15.7233 14.6844 15.6782 14.6248 15.6283L15.7398 14.7927Z" fill="white" stroke="white" stroke-width="0.0569126"></path>
<path d="M17.4313 14.9005C17.521 15.0634 17.5826 15.24 17.6136 15.423L18.8888 20.8H22.6649C22.9903 20.8013 23.3102 20.883 23.5956 21.0375C23.9128 21.2144 24.1626 21.4892 24.3067 21.8198L24.3613 21.8084V19.3723L24.3049 19.3666C24.2693 19.5398 24.1943 19.7028 24.0857 19.8433C23.9771 19.9838 23.8376 20.098 23.6778 20.1776L23.6778 20.1775L23.6774 20.1778C23.3426 20.351 22.9696 20.44 22.5917 20.4368H22.5914H18.8888V14.7332H24.3466V14.7048L24.3469 14.7332C24.7232 14.7299 25.0941 14.8216 25.4245 14.9997L25.4249 14.9999C25.5831 15.0825 25.7207 15.1988 25.8279 15.3404C25.9351 15.482 26.0092 15.6454 26.0448 15.8187L26.1011 15.8129V14.4122V14.3838H26.0726H17.0286H16.9343L17.0128 14.4359C17.1895 14.5533 17.3334 14.7129 17.431 14.8999L17.431 14.8999L17.4313 14.9005Z" fill="white" stroke="white" stroke-width="0.0569126"></path>
<path d="M18.8744 28.9261C18.0836 28.8952 17.2916 28.9334 16.5076 29.04L16.5074 29.04C16.1414 29.0916 15.7877 29.1504 15.44 29.209C15.4095 29.2141 15.379 29.2193 15.3486 29.2244C15.0321 29.2777 14.7201 29.3303 14.4072 29.3766C13.7213 29.478 13.0231 29.5462 12.3724 29.5855L12.3721 29.5856C11.7474 29.6289 11.1199 29.6132 10.4982 29.5387L10.4981 29.5387C10.0614 29.4879 9.63522 29.3716 9.23407 29.1938C8.87215 29.0322 8.54809 28.7981 8.28239 28.5064L8.28203 28.506C8.01957 28.2281 7.7953 27.9171 7.61501 27.5813L7.61484 27.581C7.42423 27.2358 7.27835 26.8683 7.18063 26.4871L7.18048 26.4866C7.07272 26.0981 6.99662 25.7017 6.95294 25.3011L6.9529 25.3008C6.90286 24.8871 6.88091 24.4706 6.88719 24.054L6.8872 24.0537C6.9009 21.8836 6.89132 19.6914 6.88149 17.4432C6.87922 16.9256 6.87695 16.4051 6.87494 15.8811L6.87494 15.8811C6.87419 15.7177 6.91499 15.412 7.01314 15.1202C7.11184 14.8268 7.26543 14.557 7.4841 14.4532L7.47289 14.3991C6.99881 14.3824 6.52041 14.3885 6.04292 14.3946C5.69351 14.3991 5.34458 14.4035 4.99817 14.399L4.93041 14.3982L4.97723 14.4472C5.03761 14.5103 5.09469 14.5606 5.14738 14.6062C5.15291 14.6109 5.15839 14.6157 5.1638 14.6203C5.21027 14.6604 5.25265 14.697 5.2917 14.7369C5.37755 14.8247 5.44751 14.9292 5.49761 15.1185L5.49757 15.1185L5.49802 15.1199C5.60198 15.4442 5.6477 15.7841 5.63312 16.1241L5.63308 16.1241L5.63309 16.1256C5.65573 18.0596 5.65246 20.1118 5.6492 22.1584C5.64805 22.8836 5.64689 23.608 5.64689 24.3263M18.8744 28.9261C19.6131 28.9394 20.3483 29.0307 21.0675 29.1981L21.0688 29.1985L21.0688 29.1985C21.7933 29.4043 22.4987 29.671 23.1773 29.9957C23.9114 30.3023 24.5927 30.7201 25.1968 31.234L25.1973 31.2345C25.2225 31.2569 25.2412 31.2788 25.2525 31.3023C25.2642 31.3266 25.2671 31.351 25.2632 31.3766C25.2598 31.3994 25.2527 31.4211 25.2325 31.4346C25.2151 31.4461 25.1925 31.4479 25.1727 31.4493C25.1456 31.4512 25.1278 31.4461 25.1099 31.436C25.1041 31.4327 25.098 31.4287 25.0922 31.4249C25.0905 31.4237 25.0888 31.4226 25.0871 31.4215C25.0794 31.4165 25.0706 31.4111 25.0594 31.4052L25.0592 31.4051C24.2742 30.985 23.4293 30.6854 22.5533 30.5166L22.5525 30.5164C21.5965 30.3058 20.3864 30.0896 19.3396 30.0896C18.8747 30.0896 18.4256 30.0558 17.9828 30.0225C17.9243 30.0181 17.8659 30.0137 17.8077 30.0094C17.3076 29.9724 16.8136 29.9418 16.3089 29.9668C15.2946 30.0168 14.2361 30.0047 13.2765 29.988C12.3166 29.9714 11.3223 29.9289 10.4595 29.8272C9.79513 29.7614 9.14503 29.5945 8.5322 29.3324L8.53203 29.3323C8.01437 29.1069 7.5436 28.7883 7.14377 28.3926L7.14366 28.3925C6.78142 28.0301 6.48275 27.6105 6.25992 27.151C6.0385 26.7101 5.87591 26.2426 5.77624 25.7602L5.77615 25.7598C5.68591 25.2873 5.64262 24.8072 5.64689 24.3263M18.8744 28.9261C18.8745 28.9261 18.8746 28.9261 18.8747 28.9261L18.8736 28.9545L18.8741 28.9261C18.8742 28.9261 18.8743 28.9261 18.8744 28.9261ZM5.64689 24.3263C5.64689 24.3263 5.64689 24.3262 5.64689 24.3262L5.6753 24.3264H5.64689C5.64689 24.3264 5.64689 24.3264 5.64689 24.3263ZM25.1084 31.4015C25.099 31.3953 25.0879 31.388 25.0726 31.38L23.1657 30.0217C23.8973 30.3272 24.5764 30.7435 25.1784 31.2557C25.2259 31.2981 25.2412 31.3315 25.2351 31.3724C25.229 31.4134 25.2136 31.4179 25.1707 31.4209C25.1412 31.423 25.1291 31.415 25.1084 31.4015Z" fill="white" stroke="white" stroke-width="0.0569126"></path>
<path d="M18.8744 28.9261C18.0836 28.8952 17.2916 28.9334 16.5076 29.04L16.5074 29.04C16.1414 29.0916 15.7877 29.1504 15.44 29.209C15.4095 29.2141 15.379 29.2193 15.3486 29.2244C15.0321 29.2777 14.7201 29.3303 14.4072 29.3766C13.7213 29.478 13.0231 29.5462 12.3724 29.5855L12.3721 29.5856C11.7474 29.6289 11.1199 29.6132 10.4982 29.5387L10.4981 29.5387C10.0614 29.4879 9.63522 29.3716 9.23407 29.1938C8.87215 29.0322 8.54809 28.7981 8.28239 28.5064L8.28203 28.506C8.01957 28.2281 7.7953 27.9171 7.61501 27.5813L7.61484 27.581C7.42423 27.2358 7.27835 26.8683 7.18063 26.4871L7.18048 26.4866C7.07272 26.0981 6.99662 25.7017 6.95294 25.3011L6.9529 25.3008C6.90286 24.8871 6.88091 24.4706 6.88719 24.054L6.8872 24.0537C6.9009 21.8836 6.89132 19.6914 6.88149 17.4432C6.87922 16.9256 6.87695 16.4051 6.87494 15.8811L6.87494 15.8811C6.87419 15.7177 6.91499 15.412 7.01314 15.1202C7.11184 14.8268 7.26543 14.557 7.4841 14.4532L7.47289 14.3991C6.99881 14.3824 6.52041 14.3885 6.04292 14.3946C5.69351 14.3991 5.34458 14.4035 4.99817 14.399L4.93041 14.3982L4.97723 14.4472C5.03761 14.5103 5.09469 14.5606 5.14738 14.6062C5.15291 14.6109 5.15839 14.6157 5.1638 14.6203C5.21027 14.6604 5.25265 14.697 5.2917 14.7369C5.37755 14.8247 5.44751 14.9292 5.49761 15.1185L5.49757 15.1185L5.49802 15.1199C5.60198 15.4442 5.6477 15.7841 5.63312 16.1241L5.63308 16.1241L5.63309 16.1256C5.65573 18.0596 5.65246 20.1118 5.6492 22.1584C5.64805 22.8836 5.64689 23.608 5.64689 24.3263M18.8744 28.9261C19.6131 28.9394 20.3483 29.0307 21.0675 29.1981L21.0688 29.1985L21.0688 29.1985C21.7933 29.4043 22.4987 29.671 23.1773 29.9957C23.9114 30.3023 24.5927 30.7201 25.1968 31.234L25.1973 31.2345C25.2225 31.2569 25.2412 31.2788 25.2525 31.3023C25.2642 31.3266 25.2671 31.351 25.2632 31.3766C25.2598 31.3994 25.2527 31.4211 25.2325 31.4346C25.2151 31.4461 25.1925 31.4479 25.1727 31.4493C25.1456 31.4512 25.1278 31.4461 25.1099 31.436C25.1041 31.4327 25.098 31.4287 25.0922 31.4249C25.0905 31.4237 25.0888 31.4226 25.0871 31.4215C25.0794 31.4165 25.0706 31.4111 25.0594 31.4052L25.0592 31.4051C24.2742 30.985 23.4293 30.6854 22.5533 30.5166L22.5525 30.5164C21.5965 30.3058 20.3864 30.0896 19.3396 30.0896C18.8747 30.0896 18.4256 30.0558 17.9828 30.0225C17.9243 30.0181 17.8659 30.0137 17.8077 30.0094C17.3076 29.9724 16.8136 29.9418 16.3089 29.9668C15.2946 30.0168 14.2361 30.0047 13.2765 29.988C12.3166 29.9714 11.3223 29.9289 10.4595 29.8272C9.79513 29.7614 9.14503 29.5945 8.5322 29.3324L8.53203 29.3323C8.01437 29.1069 7.5436 28.7883 7.14377 28.3926L7.14366 28.3925C6.78142 28.0301 6.48275 27.6105 6.25992 27.151C6.0385 26.7101 5.87591 26.2426 5.77624 25.7602L5.77615 25.7598C5.68591 25.2873 5.64262 24.8072 5.64689 24.3263M18.8744 28.9261C18.8745 28.9261 18.8746 28.9261 18.8747 28.9261L18.8736 28.9545L18.8741 28.9261C18.8742 28.9261 18.8743 28.9261 18.8744 28.9261ZM5.64689 24.3263C5.64689 24.3263 5.64689 24.3262 5.64689 24.3262L5.6753 24.3264H5.64689C5.64689 24.3264 5.64689 24.3264 5.64689 24.3263ZM25.1084 31.4015C25.099 31.3953 25.0879 31.388 25.0726 31.38L23.1657 30.0217C23.8973 30.3272 24.5764 30.7435 25.1784 31.2557C25.2259 31.2981 25.2412 31.3315 25.2351 31.3724C25.229 31.4134 25.2136 31.4179 25.1707 31.4209C25.1412 31.423 25.1291 31.415 25.1084 31.4015Z" fill="white" stroke="white" stroke-width="0.0569126"></path>
<path d="M37.148 20.3768C37.133 19.713 37.0432 19.053 36.8804 18.409L36.8803 18.4088C36.723 17.8025 36.48 17.2213 36.1583 16.6823L36.1582 16.6822C35.823 16.1263 35.3645 15.653 34.8173 15.2981L34.8172 15.298C34.2047 14.9021 33.5196 14.6287 32.8008 14.4936C32.0261 14.3307 30.6133 14.2824 29.1724 14.3415H27.4102H27.3136L27.3947 14.3938C27.6349 14.549 27.8158 14.7789 27.9088 15.0471C28.0005 15.3617 28.0429 15.6883 28.0347 16.0155L28.0347 16.0155V16.0162L28.0347 25.1117L28.0347 25.1125C28.0435 25.4443 28.001 25.7754 27.9088 26.0946C27.8162 26.363 27.6352 26.593 27.3948 26.7477L27.3134 26.8001H27.4102H29.1726C30.4955 26.8304 31.7946 26.7866 32.4599 26.6678C33.2425 26.5337 33.9905 26.2475 34.6606 25.8256C35.2583 25.4494 35.7648 24.9474 36.144 24.3555L36.1442 24.3552C36.5049 23.7802 36.771 23.1521 36.9325 22.4945L36.9326 22.4943C37.0982 21.8009 37.1707 21.0889 37.148 20.3768ZM37.148 20.3768C37.148 20.3768 37.148 20.3768 37.148 20.3769L37.1195 20.3775M37.148 20.3768C37.148 20.3767 37.148 20.3767 37.148 20.3766L37.1195 20.3775M37.1195 20.3775C37.1046 19.7159 37.0151 19.058 36.8528 18.4159L36.1201 24.3401C36.4791 23.7676 36.744 23.1423 36.9049 22.4877C37.07 21.7967 37.1422 21.0872 37.1195 20.3775ZM32.2992 26.2741L32.2995 26.2741C32.9089 26.1259 33.4798 25.8524 33.975 25.4712C34.4368 25.1122 34.809 24.653 35.0628 24.1291L35.0884 24.1415L35.0628 24.1291C35.3198 23.5988 35.5056 23.0376 35.6154 22.4597C35.7328 21.8315 35.7901 21.1938 35.7866 20.555L35.7866 20.5548C35.7892 19.946 35.7298 19.3385 35.6093 18.7415L32.2992 26.2741ZM32.2992 26.2741C31.7646 26.41 30.5587 26.468 29.2674 26.4466V14.6703C29.7988 14.6518 30.6433 14.6597 31.2301 14.6925L31.2301 14.6925L31.2308 14.6925C31.7074 14.707 32.18 14.7835 32.6364 14.9201C33.1734 15.0982 33.665 15.3893 34.0772 15.7733C34.4877 16.1564 34.8219 16.6121 35.0627 17.1169L35.0628 17.1169M32.2992 26.2741L35.0628 17.1169M35.0628 17.1169C35.3102 17.6348 35.4937 18.1802 35.6093 18.7414L35.0628 17.1169Z" fill="white" stroke="white" stroke-width="0.0569126"></path>
</svg><style>@media (prefers-color-scheme: light) { :root { filter: none; } }
</style></svg>