<svg width="149" height="30" viewBox="0 0 149 30" fill="none" xmlns="http://www.w3.org/2000/svg">
<g clip-path="url(#clip0_110_472)">
<path d="M79.9838 11.0246C79.9838 8.66731 79.7818 7.82828 78.5725 7.29556C77.3631 6.76285 76.7598 6.46453 76.9564 5.30054L77.6271 0.982872C77.7294 0.386228 78.4351 -0.0452706 78.9038 0.119872C79.3078 1.35045 79.9811 1.78195 81.9258 1.78195H91.4308C94.3532 1.78195 94.3532 3.34283 94.3532 6.13161C94.3532 9.75143 93.2758 15.0653 88.6782 21.7083H84.5465L84.4791 16.7274C90.0545 15.6619 92.1715 15.0333 93.1789 11.6133C94.1862 8.19325 92.5405 7.32756 89.9872 7.32756H82.6665C80.6518 7.32756 80.3824 8.95501 80.3824 10.7902C80.3824 16.437 81.9608 20.9545 83.6738 25.9354L82.6988 28.0956H79.9784L79.9838 11.0246Z" fill="black"/>
<path d="M101.41 18.9301C103.565 10.6916 104.332 8.03601 100.871 7.2396L98.2506 6.64029C97.009 6.34197 96.6346 5.71073 96.8393 4.48282L97.4103 1.06008C97.545 0.428812 98.0163 -0.0692763 98.6546 0.0639031C99.1233 1.1613 99.5273 1.06012 100.871 1.3611C102.757 1.75798 103.565 2.6556 103.592 4.87969L103.794 18.1656C103.794 19.3936 103.659 21.1888 103.457 21.7189H101.946L101.41 18.9301Z" fill="black"/>
<path d="M106.447 17.4013C106.488 17.0576 106.653 16.7402 106.913 16.5081C107.172 16.2759 107.508 16.1447 107.858 16.1387H116.633C119.116 16.1387 119.418 16.0082 119.327 12.2871C119.227 8.36898 118.589 7.33822 115.286 7.33822H107.796C106.821 7.33822 106.218 6.67495 106.352 5.77732L107.058 0.961599C107.079 0.823751 107.128 0.691638 107.203 0.573701C107.279 0.455764 107.378 0.354572 107.494 0.276453C107.611 0.198335 107.743 0.144976 107.882 0.119863C108.02 0.0947501 108.163 0.0983965 108.3 0.130528C108.736 1.36111 109.576 1.79261 110.786 1.79261H117.77C119.854 1.79261 120.66 3.18569 120.49 5.27927L119.819 13.7148C119.685 15.5101 119.752 15.8457 122.171 16.2719L121.735 20.5896C121.632 21.4552 121.263 21.7189 120.358 21.7189H105.948L106.447 17.4013Z" fill="black"/>
<path d="M128.142 13.6509C129.554 9.53295 129.419 8.10525 126.866 7.30884L124.784 6.6776C123.677 6.31269 122.971 6.01168 123.372 4.65058L124.549 0.92156C124.751 0.226363 125.322 -0.0745862 125.791 0.0932199C125.993 1.0894 126.564 1.18795 128.579 1.81922C132.81 3.08176 131.401 7.43141 128.546 13.7441L128.142 13.6509Z" fill="black"/>
<path d="M145.337 9.59696C145.571 8.06806 145.17 7.33824 143.489 7.33824H134.757C133.885 7.33824 133.179 6.93867 133.314 5.77735L133.92 0.961623C133.942 0.824303 133.992 0.692868 134.067 0.575546C134.143 0.458223 134.242 0.357455 134.358 0.279534C134.474 0.201612 134.606 0.148186 134.744 0.122553C134.882 0.0969207 135.024 0.0996565 135.161 0.130552C135.598 1.36113 136.239 1.79263 138.183 1.79263H147.454C148.494 1.79263 148.997 2.29075 148.997 3.28693V6.77353C144.128 8.33439 145.372 11.7891 148.494 19.5268L147.416 21.719H145.132C144.464 18.2004 144.801 13.6509 145.337 9.59696Z" fill="black"/>
<path d="M13.1385 19.1912C13.1727 20.4733 13.5524 21.3531 14.2779 21.8308H9.92529C10.3543 21.5539 10.6775 21.1433 10.8437 20.6642C11.0065 20.1025 11.081 19.5195 11.0646 18.9355V3.01788C11.0805 2.43302 11.006 1.84918 10.8437 1.28655C10.6766 0.808551 10.3535 0.399046 9.92529 0.122528H14.2832C13.565 0.598423 13.1852 1.47834 13.1439 2.76219L13.1385 19.1912Z" fill="black"/>
<path d="M18.8297 0.812371C19.0371 1.20658 18.9778 1.76061 18.6492 2.47978C18.4396 3.05869 18.0655 3.56549 17.5719 3.93942L17.4156 3.81157C17.4992 3.65032 17.547 3.4733 17.5558 3.29232C17.5646 3.11134 17.5343 2.93059 17.4668 2.76214C17.4047 2.65216 17.3256 2.55239 17.2325 2.46645C17.1463 2.3892 17.052 2.30932 16.947 2.22142C16.8486 2.14154 16.7584 2.05233 16.6776 1.95506C16.5377 1.76101 16.465 1.52743 16.4702 1.28916C16.4684 1.13276 16.4998 0.977715 16.5624 0.83409C16.6251 0.690466 16.7175 0.561434 16.8338 0.455426C16.9499 0.342529 17.0876 0.253738 17.2388 0.19427C17.3901 0.134802 17.5519 0.105847 17.7146 0.109147C17.951 0.0986454 18.185 0.16057 18.3846 0.286416C18.5841 0.412262 18.7396 0.595938 18.8297 0.812371Z" fill="black"/>
<path d="M33.9963 0.636582H24.3566V10.7582H30.9124C31.5846 10.7639 32.2479 10.6056 32.8435 10.2974C33.131 10.1544 33.382 9.94874 33.5774 9.69591C33.7729 9.44308 33.9078 9.14964 33.9721 8.83778V13.1182C33.7143 12.5271 33.2678 12.0359 32.7008 11.7198C32.192 11.4443 31.6217 11.2987 31.0416 11.2963H24.3566V21.3194H33.9963C34.6659 21.3253 35.326 21.1621 35.914 20.8453C36.1988 20.6962 36.4465 20.4866 36.6393 20.2314C36.8321 19.9762 36.9653 19.6819 37.0291 19.3696V21.8308H21.1379C21.5676 21.554 21.8918 21.1435 22.0591 20.6642C22.2204 20.1022 22.2949 19.5194 22.2799 18.9355V3.01788C22.2851 2.64128 22.2635 2.26479 22.2153 1.89119C22.16 1.5638 22.0498 1.24782 21.8894 0.956265C21.7139 0.620211 21.4554 0.333406 21.1379 0.122528H37.0291V2.58368C36.9651 2.27185 36.8318 1.97801 36.639 1.72328C36.4462 1.46856 36.1986 1.2593 35.914 1.11071C35.326 0.79388 34.6659 0.630683 33.9963 0.636582Z" fill="black"/>
<path d="M1.1905 17.5424C1.1905 12.7187 1.22012 7.73508 1.16626 3.1324C1.19213 2.52913 1.111 1.92606 0.926537 1.35047C0.746078 0.668593 0.41748 0.586019 0 0.149191C1.44637 0.167836 2.90351 0.0985827 4.34718 0.149191C3.53916 0.532748 3.24559 2.11754 3.24828 2.70353C3.26713 7.62318 3.29944 12.3724 3.26982 17.063C3.25874 17.7972 3.29743 18.5313 3.38563 19.2604C3.46267 19.9669 3.59689 20.6661 3.78696 21.3513C3.95972 22.0252 4.21761 22.6749 4.55458 23.2851C4.87347 23.8791 5.27012 24.429 5.7343 24.9206C6.20584 25.4384 6.78089 25.8537 7.42308 26.1404C8.13257 26.455 8.88641 26.6607 9.65862 26.7504C10.7542 26.8817 11.8599 26.9094 12.9608 26.833C14.1055 26.7638 15.3336 26.6439 16.5403 26.4655C17.747 26.287 18.9455 26.0552 20.2303 25.8741C21.6052 25.6871 22.9941 25.6202 24.3808 25.6743C25.6755 25.6977 26.964 25.8576 28.2244 26.1511C29.4951 26.5121 30.7323 26.9799 31.9224 27.5495C33.208 28.0862 34.4011 28.8177 35.4589 29.7177C35.5424 29.7923 35.5693 29.8509 35.5585 29.9228C35.5478 29.9947 35.5208 30.0027 35.4454 30.008C35.37 30.0133 35.3592 29.9813 35.273 29.9361C33.8894 29.1956 32.4 28.6676 30.8558 28.3699C29.1751 27.9997 27.0446 27.6188 25.1997 27.6188C23.3547 27.6188 21.6524 27.3151 19.8721 27.403C18.0917 27.4909 16.2332 27.4696 14.5472 27.4403C12.8611 27.411 11.1158 27.3364 9.60205 27.158C8.43961 27.043 7.30212 26.7509 6.22988 26.2923C5.32594 25.8988 4.50393 25.3424 3.8058 24.6515C3.17317 24.0186 2.65159 23.2858 2.26248 22.4833C1.87531 21.7123 1.59102 20.8949 1.41674 20.0515C1.25878 19.2244 1.18302 18.3841 1.1905 17.5424Z" fill="black"/>
<path d="M56.4406 10.6038C56.4804 11.8507 56.3536 13.0973 56.0635 14.3114C55.7809 15.4617 55.3154 16.5604 54.6845 17.5663C54.0222 18.6002 53.1375 19.477 52.0934 20.1341C50.9216 20.8719 49.6134 21.3726 48.2445 21.6071C47.081 21.8148 44.8023 21.892 42.4779 21.8388H39.3805C39.8128 21.5606 40.1381 21.1469 40.3043 20.6641C40.468 20.0981 40.5434 19.5107 40.5279 18.9221V2.9406C40.5424 2.36001 40.467 1.78064 40.3043 1.2226C40.1373 0.740192 39.8122 0.326727 39.3805 0.047918H42.4779C45.0097 -0.055962 47.4877 0.0292728 48.8425 0.314277C50.0994 0.550488 51.2973 1.02831 52.3682 1.72066C53.3233 2.34026 54.1236 3.16636 54.7088 4.13655C55.2715 5.07956 55.6968 6.09646 55.972 7.15708C56.2572 8.28519 56.4144 9.44121 56.4406 10.6038ZM47.9833 21.013C49.0608 20.7511 50.0704 20.2674 50.946 19.5934C51.7636 18.9578 52.4225 18.1449 52.8718 17.2174C53.3253 16.2817 53.6531 15.2913 53.8469 14.2715C54.0538 13.1647 54.1548 12.041 54.1485 10.9154C54.1531 9.84227 54.0485 8.77143 53.8361 7.71907C53.6322 6.7289 53.3085 5.76663 52.8718 4.85304C52.446 3.96044 51.8549 3.1546 51.1292 2.47714C50.3993 1.79739 49.5291 1.2821 48.5785 0.966843C47.7722 0.725565 46.9372 0.590397 46.0952 0.564704C45.0448 0.506105 43.5257 0.49275 42.5937 0.527377V21.3167C44.8805 21.3567 47.0298 21.2554 47.9833 21.013Z" fill="black"/>
<path d="M66.7579 8.1843L63.6649 11.243L66.7579 14.3017L69.8509 11.243L66.7579 8.1843Z" fill="black"/>
<path d="M24.6529 25.7063C24.6259 25.7063 24.4078 25.6743 24.3835 25.6823C17.5907 24.8832 7.71933 29.3821 3.93508 21.8468H2.04968H1.96619C6.57732 32.4079 26.0884 24.0203 35.2542 29.9228C31.812 26.9902 28.1785 25.962 24.6529 25.7063Z" fill="black"/>
</g>
<defs>
<clipPath id="clip0_110_472">
<rect width="149" height="30" fill="white"/>
</clipPath>
</defs>
</svg>
