<svg width="149" height="30" viewBox="0 0 149 30" fill="none" xmlns="http://www.w3.org/2000/svg">
<g clip-path="url(#clip0_128_10319)">
<path d="M79.9839 11.0246C79.9839 8.66731 79.7819 7.82828 78.5726 7.29556C77.3632 6.76285 76.7599 6.46453 76.9565 5.30054L77.6272 0.982872C77.7295 0.386228 78.4352 -0.0452706 78.9039 0.119872C79.3079 1.35045 79.9812 1.78195 81.9259 1.78195H91.431C94.3533 1.78195 94.3533 3.34283 94.3533 6.13161C94.3533 9.75143 93.276 15.0653 88.6783 21.7083H84.5466L84.4793 16.7274C90.0546 15.6619 92.1717 15.0333 93.179 11.6133C94.1863 8.19325 92.5407 7.32756 89.9873 7.32756H82.6666C80.6519 7.32756 80.3826 8.95501 80.3826 10.7902C80.3826 16.437 81.9609 20.9545 83.6739 25.9354L82.6989 28.0956H79.9785L79.9839 11.0246Z" fill="#F5F2F0"/>
<path d="M101.41 18.9301C103.565 10.6916 104.332 8.03601 100.871 7.2396L98.2507 6.64029C97.0091 6.34197 96.6347 5.71073 96.8394 4.48282L97.4104 1.06008C97.5451 0.428812 98.0164 -0.0692763 98.6548 0.0639031C99.1234 1.1613 99.5274 1.06012 100.871 1.3611C102.757 1.75798 103.565 2.6556 103.592 4.87969L103.794 18.1656C103.794 19.3936 103.659 21.1888 103.457 21.7189H101.946L101.41 18.9301Z" fill="#F5F2F0"/>
<path d="M106.447 17.4013C106.488 17.0576 106.653 16.7402 106.913 16.5081C107.172 16.2759 107.508 16.1447 107.858 16.1387H116.633C119.116 16.1387 119.418 16.0082 119.326 12.2871C119.227 8.36898 118.588 7.33822 115.286 7.33822H107.796C106.821 7.33822 106.218 6.67495 106.352 5.77732L107.058 0.961599C107.079 0.823751 107.128 0.691638 107.203 0.573701C107.278 0.455764 107.378 0.354572 107.494 0.276453C107.611 0.198335 107.743 0.144976 107.881 0.119863C108.02 0.0947501 108.162 0.0983965 108.3 0.130528C108.736 1.36111 109.576 1.79261 110.786 1.79261H117.77C119.854 1.79261 120.66 3.18569 120.49 5.27927L119.819 13.7148C119.685 15.5101 119.752 15.8457 122.171 16.2719L121.734 20.5896C121.632 21.4552 121.263 21.7189 120.358 21.7189H105.948L106.447 17.4013Z" fill="#F5F2F0"/>
<path d="M128.142 13.6509C129.553 9.53295 129.419 8.10525 126.865 7.30884L124.783 6.6776C123.676 6.31269 122.971 6.01168 123.372 4.65058L124.549 0.92156C124.751 0.226363 125.322 -0.0745862 125.791 0.0932199C125.993 1.0894 126.564 1.18795 128.578 1.81922C132.81 3.08176 131.401 7.43141 128.546 13.7441L128.142 13.6509Z" fill="#F5F2F0"/>
<path d="M145.337 9.59696C145.571 8.06806 145.17 7.33824 143.489 7.33824H134.757C133.884 7.33824 133.179 6.93867 133.313 5.77735L133.919 0.961623C133.941 0.824303 133.992 0.692868 134.067 0.575546C134.142 0.458223 134.241 0.357455 134.358 0.279534C134.474 0.201612 134.606 0.148186 134.744 0.122553C134.882 0.0969207 135.024 0.0996565 135.161 0.130552C135.597 1.36113 136.238 1.79263 138.183 1.79263H147.454C148.494 1.79263 148.997 2.29075 148.997 3.28693V6.77353C144.127 8.33439 145.372 11.7891 148.494 19.5268L147.416 21.719H145.132C144.464 18.2004 144.801 13.6509 145.337 9.59696Z" fill="#F5F2F0"/>
<path d="M13.1385 19.1912C13.1727 20.4733 13.5524 21.3531 14.2779 21.8308H9.92529C10.3543 21.5539 10.6775 21.1433 10.8437 20.6642C11.0065 20.1025 11.081 19.5195 11.0646 18.9355V3.01788C11.0805 2.43302 11.006 1.84918 10.8437 1.28655C10.6766 0.808551 10.3535 0.399046 9.92529 0.122528H14.2832C13.565 0.598423 13.1852 1.47834 13.1439 2.76219L13.1385 19.1912Z" fill="#F5F2F0"/>
<path d="M18.8299 0.812371C19.0373 1.20658 18.9781 1.76061 18.6495 2.47978C18.4398 3.05869 18.0657 3.56549 17.5721 3.93942L17.4159 3.81157C17.4994 3.65032 17.5472 3.4733 17.556 3.29232C17.5649 3.11134 17.5345 2.93059 17.4671 2.76214C17.4049 2.65216 17.3259 2.55239 17.2327 2.46645C17.1465 2.3892 17.0523 2.30932 16.9472 2.22142C16.8489 2.14154 16.7587 2.05233 16.6779 1.95506C16.538 1.76101 16.4652 1.52743 16.4705 1.28916C16.4686 1.13276 16.5 0.977715 16.5627 0.83409C16.6253 0.690466 16.7178 0.561434 16.8341 0.455426C16.9501 0.342529 17.0878 0.253738 17.2391 0.19427C17.3903 0.134802 17.5521 0.105847 17.7148 0.109147C17.9513 0.0986454 18.1852 0.16057 18.3848 0.286416C18.5844 0.412262 18.7398 0.595938 18.8299 0.812371Z" fill="#F5F2F0"/>
<path d="M33.9966 0.636582H24.3568V10.7582H30.9126C31.5848 10.7639 32.2481 10.6056 32.8438 10.2974C33.1313 10.1544 33.3822 9.94874 33.5777 9.69591C33.7732 9.44308 33.9081 9.14964 33.9723 8.83778V13.1182C33.7146 12.5271 33.268 12.0359 32.701 11.7198C32.1922 11.4443 31.622 11.2987 31.0419 11.2963H24.3568V21.3194H33.9966C34.6662 21.3253 35.3263 21.1621 35.9143 20.8453C36.199 20.6962 36.4467 20.4866 36.6395 20.2314C36.8324 19.9762 36.9655 19.6819 37.0294 19.3696V21.8308H21.1382C21.5679 21.554 21.892 21.1435 22.0593 20.6642C22.2207 20.1022 22.2952 19.5194 22.2802 18.9355V3.01788C22.2854 2.64128 22.2638 2.26479 22.2156 1.89119C22.1602 1.5638 22.0501 1.24782 21.8896 0.956265C21.7142 0.620211 21.4557 0.333406 21.1382 0.122528H37.0294V2.58368C36.9653 2.27185 36.8321 1.97801 36.6393 1.72328C36.4464 1.46856 36.1988 1.2593 35.9143 1.11071C35.3263 0.79388 34.6662 0.630683 33.9966 0.636582Z" fill="#F5F2F0"/>
<path d="M1.1905 17.5424C1.1905 12.7187 1.22012 7.73508 1.16626 3.1324C1.19213 2.52913 1.111 1.92606 0.926537 1.35047C0.746078 0.668593 0.41748 0.586019 0 0.149191C1.44637 0.167836 2.90351 0.0985827 4.34718 0.149191C3.53916 0.532748 3.24559 2.11754 3.24828 2.70353C3.26713 7.62318 3.29944 12.3724 3.26982 17.063C3.25874 17.7972 3.29743 18.5313 3.38563 19.2604C3.46267 19.9669 3.59689 20.6661 3.78696 21.3513C3.95972 22.0252 4.21761 22.6749 4.55458 23.2851C4.87347 23.8791 5.27012 24.429 5.7343 24.9206C6.20584 25.4384 6.78089 25.8537 7.42308 26.1404C8.13257 26.455 8.88641 26.6607 9.65862 26.7504C10.7542 26.8817 11.8599 26.9094 12.9608 26.833C14.1055 26.7638 15.3336 26.6439 16.5403 26.4655C17.747 26.287 18.9455 26.0552 20.2303 25.8741C21.6052 25.6871 22.9941 25.6202 24.3808 25.6743C25.6755 25.6977 26.964 25.8576 28.2244 26.1511C29.4951 26.5121 30.7323 26.9799 31.9224 27.5495C33.208 28.0862 34.4011 28.8177 35.4589 29.7177C35.5424 29.7923 35.5693 29.8509 35.5585 29.9228C35.5478 29.9947 35.5208 30.0027 35.4454 30.008C35.37 30.0133 35.3592 29.9813 35.273 29.9361C33.8894 29.1956 32.4 28.6676 30.8558 28.3699C29.1751 27.9997 27.0446 27.6188 25.1997 27.6188C23.3547 27.6188 21.6524 27.3151 19.8721 27.403C18.0917 27.4909 16.2332 27.4696 14.5472 27.4403C12.8611 27.411 11.1158 27.3364 9.60205 27.158C8.43961 27.043 7.30212 26.7509 6.22988 26.2923C5.32594 25.8988 4.50393 25.3424 3.8058 24.6515C3.17317 24.0186 2.65159 23.2858 2.26248 22.4833C1.87531 21.7123 1.59102 20.8949 1.41674 20.0515C1.25878 19.2244 1.18302 18.3841 1.1905 17.5424Z" fill="#F5F2F0"/>
<path d="M56.4405 10.6038C56.4803 11.8507 56.3535 13.0973 56.0634 14.3114C55.7808 15.4617 55.3153 16.5604 54.6844 17.5663C54.0221 18.6002 53.1374 19.477 52.0933 20.1341C50.9215 20.8719 49.6133 21.3726 48.2444 21.6071C47.0809 21.8148 44.8022 21.892 42.4778 21.8388H39.3804C39.8126 21.5606 40.138 21.1469 40.3042 20.6641C40.4679 20.0981 40.5433 19.5107 40.5278 18.9221V2.9406C40.5423 2.36001 40.4669 1.78064 40.3042 1.2226C40.1372 0.740192 39.8121 0.326727 39.3804 0.047918H42.4778C45.0096 -0.055962 47.4876 0.0292728 48.8424 0.314277C50.0993 0.550488 51.2972 1.02831 52.368 1.72066C53.3232 2.34026 54.1235 3.16636 54.7086 4.13655C55.2714 5.07956 55.6967 6.09646 55.9718 7.15708C56.2571 8.28519 56.4143 9.44121 56.4405 10.6038ZM47.9832 21.013C49.0607 20.7511 50.0703 20.2674 50.9459 19.5934C51.7635 18.9578 52.4224 18.1449 52.8717 17.2174C53.3252 16.2817 53.653 15.2913 53.8467 14.2715C54.0537 13.1647 54.1547 12.041 54.1484 10.9154C54.153 9.84227 54.0483 8.77143 53.8359 7.71907C53.6321 6.7289 53.3083 5.76663 52.8717 4.85304C52.4459 3.96044 51.8548 3.1546 51.1291 2.47714C50.3992 1.79739 49.529 1.2821 48.5784 0.966843C47.7721 0.725565 46.9371 0.590397 46.0951 0.564704C45.0446 0.506105 43.5255 0.49275 42.5936 0.527377V21.3167C44.8803 21.3567 47.0297 21.2554 47.9832 21.013Z" fill="#F5F2F0"/>
<path d="M66.758 8.1843L63.665 11.243L66.758 14.3017L69.851 11.243L66.758 8.1843Z" fill="#F5F2F0"/>
<path d="M24.653 25.7063C24.626 25.7063 24.4079 25.6743 24.3836 25.6823C17.5908 24.8832 7.71945 29.3821 3.9352 21.8468H2.0498H1.96631C6.57744 32.4079 26.0886 24.0203 35.2543 29.9228C31.8121 26.9902 28.1787 25.962 24.653 25.7063Z" fill="#F5F2F0"/>
</g>
<defs>
<clipPath id="clip0_128_10319">
<rect width="149" height="30" fill="#fbfaf8"/>
</clipPath>
</defs>
</svg>
